<svg width="32" height="32" viewBox="0 0 32 32" fill="none" xmlns="http://www.w3.org/2000/svg">
<path d="M8 28H6V30H8V28Z" fill="#281E0B"/>
<path d="M6 28H4V30H6V28Z" fill="#684E1E"/>
<path d="M10 26H8V28H10V26Z" fill="#281E0B"/>
<path d="M8 26H6V28H8V26Z" fill="#896727"/>
<path d="M6 26H4V28H6V26Z" fill="#493615"/>
<path d="M12 24H10V26H12V24Z" fill="#281E0B"/>
<path d="M10 24H8V26H10V24Z" fill="#684E1E"/>
<path d="M8 24H6V26H8V24Z" fill="#493615"/>
<path d="M28 22H26V24H28V22Z" fill="#372910"/>
<path d="M14 22H12V24H14V22Z" fill="#281E0B"/>
<path d="M12 22H10V24H12V22Z" fill="#896727"/>
<path d="M10 22H8V24H10V22Z" fill="#493615"/>
<path d="M30 20H28V22H30V20Z" fill="#372910"/>
<path d="M28 20H26V22H28V20Z" fill="#866526"/>
<path d="M26 20H24V22H26V20Z" fill="#372910"/>
<path d="M16 20H14V22H16V20Z" fill="#281E0B"/>
<path d="M14 20H12V22H14V20Z" fill="#684E1E"/>
<path d="M12 20H10V22H12V20Z" fill="#493615"/>
<path d="M30 18H28V20H30V18Z" fill="#372910"/>
<path d="M28 18H26V20H28V18Z" fill="#755821"/>
<path d="M26 18H24V20H26V18Z" fill="#372910"/>
<path d="M18 18H16V20H18V18Z" fill="#281E0B"/>
<path d="M16 18H14V20H16V18Z" fill="#896727"/>
<path d="M14 18H12V20H14V18Z" fill="#493615"/>
<path d="M30 16H28V18H30V16Z" fill="#372910"/>
<path d="M28 16H26V18H28V16Z" fill="#6B511F"/>
<path d="M26 16H24V18H26V16Z" fill="#372910"/>
<path d="M20 16H18V18H20V16Z" fill="#281E0B"/>
<path d="M18 16H16V18H18V16Z" fill="#684E1E"/>
<path d="M16 16H14V18H16V16Z" fill="#493615"/>
<path d="M30 14H28V16H30V14Z" fill="#372910"/>
<path d="M28 14H26V16H28V14Z" fill="#6B511F"/>
<path d="M26 14H24V16H26V14Z" fill="#372910"/>
<path d="M22 14H20V16H22V14Z" fill="#281E0B"/>
<path d="M20 14H18V16H20V14Z" fill="#896727"/>
<path d="M18 14H16V16H18V14Z" fill="#493615"/>
<path d="M30 12H28V14H30V12Z" fill="#372910"/>
<path d="M28 12H26V14H28V12Z" fill="#755821"/>
<path d="M26 12H24V14H26V12Z" fill="#6B511F"/>
<path d="M24 12H22V14H24V12Z" fill="#281E0B"/>
<path d="M22 12H20V14H22V12Z" fill="#684E1E"/>
<path d="M20 12H18V14H20V12Z" fill="#493615"/>
<path d="M28 10H26V12H28V10Z" fill="#372910"/>
<path d="M26 10H24V12H26V10Z" fill="#6B511F"/>
<path d="M24 10H22V12H24V10Z" fill="#755821"/>
<path d="M22 10H20V12H22V10Z" fill="#493615"/>
<path d="M28 8H26V10H28V8Z" fill="#281E0B"/>
<path d="M26 8H24V10H26V8Z" fill="#896727"/>
<path d="M24 8H22V10H24V8Z" fill="#6B511F"/>
<path d="M22 8H20V10H22V8Z" fill="#6B511F"/>
<path d="M20 8H18V10H20V8Z" fill="#372910"/>
<path d="M18 8H16V10H18V8Z" fill="#372910"/>
<path d="M16 8H14V10H16V8Z" fill="#372910"/>
<path d="M14 8H12V10H14V8Z" fill="#372910"/>
<path d="M28 6H26V8H28V6Z" fill="#684E1E"/>
<path d="M26 6H24V8H26V6Z" fill="#493615"/>
<path d="M24 6H22V8H24V6Z" fill="#372910"/>
<path d="M22 6H20V8H22V6Z" fill="#755821"/>
<path d="M20 6H18V8H20V6Z" fill="#6B511F"/>
<path d="M18 6H16V8H18V6Z" fill="#6B511F"/>
<path d="M16 6H14V8H16V6Z" fill="#755821"/>
<path d="M14 6H12V8H14V6Z" fill="#866526"/>
<path d="M12 6H10V8H12V6Z" fill="#372910"/>
<path d="M22 4H20V6H22V4Z" fill="#372910"/>
<path d="M20 4H18V6H20V4Z" fill="#372910"/>
<path d="M18 4H16V6H18V4Z" fill="#372910"/>
<path d="M16 4H14V6H16V4Z" fill="#372910"/>
<path d="M14 4H12V6H14V4Z" fill="#372910"/>
</svg>
