<svg xmlns="http://www.w3.org/2000/svg" xml:space="preserve" viewBox="0 0 16 16"><path fill="#281e0b" d="M3 14h1v1H3z"/><path fill="#684e1e" d="M2 14h1v1H2z"/><path fill="#281e0b" d="M4 13h1v1H4z"/><path fill="#896727" d="M3 13h1v1H3z"/><path fill="#493615" d="M2 13h1v1H2z"/><path fill="#281e0b" d="M5 12h1v1H5z"/><path fill="#684e1e" d="M4 12h1v1H4z"/><path fill="#493615" d="M3 12h1v1H3z"/><path fill="#372910" d="M13 11h1v1h-1z"/><path fill="#281e0b" d="M6 11h1v1H6z"/><path fill="#896727" d="M5 11h1v1H5z"/><path fill="#493615" d="M4 11h1v1H4z"/><path fill="#372910" d="M14 10h1v1h-1z"/><path fill="#866526" d="M13 10h1v1h-1z"/><path fill="#372910" d="M12 10h1v1h-1z"/><path fill="#281e0b" d="M7 10h1v1H7z"/><path fill="#684e1e" d="M6 10h1v1H6z"/><path fill="#493615" d="M5 10h1v1H5z"/><path fill="#372910" d="M14 9h1v1h-1z"/><path fill="#755821" d="M13 9h1v1h-1z"/><path fill="#372910" d="M12 9h1v1h-1z"/><path fill="#281e0b" d="M8 9h1v1H8z"/><path fill="#896727" d="M7 9h1v1H7z"/><path fill="#493615" d="M6 9h1v1H6z"/><path fill="#372910" d="M14 8h1v1h-1z"/><path fill="#6b511f" d="M13 8h1v1h-1z"/><path fill="#372910" d="M12 8h1v1h-1z"/><path fill="#281e0b" d="M9 8h1v1H9z"/><path fill="#684e1e" d="M8 8h1v1H8z"/><path fill="#493615" d="M7 8h1v1H7z"/><path fill="#372910" d="M14 7h1v1h-1z"/><path fill="#6b511f" d="M13 7h1v1h-1z"/><path fill="#372910" d="M12 7h1v1h-1z"/><path fill="#281e0b" d="M10 7h1v1h-1z"/><path fill="#896727" d="M9 7h1v1H9z"/><path fill="#493615" d="M8 7h1v1H8z"/><path fill="#372910" d="M14 6h1v1h-1z"/><path fill="#755821" d="M13 6h1v1h-1z"/><path fill="#6b511f" d="M12 6h1v1h-1z"/><path fill="#281e0b" d="M11 6h1v1h-1z"/><path fill="#684e1e" d="M10 6h1v1h-1z"/><path fill="#493615" d="M9 6h1v1H9z"/><path fill="#372910" d="M13 5h1v1h-1z"/><path fill="#6b511f" d="M12 5h1v1h-1z"/><path fill="#755821" d="M11 5h1v1h-1z"/><path fill="#493615" d="M10 5h1v1h-1z"/><path fill="#281e0b" d="M13 4h1v1h-1z"/><path fill="#896727" d="M12 4h1v1h-1z"/><path fill="#6b511f" d="M11 4h1v1h-1z"/><path fill="#6b511f" d="M10 4h1v1h-1z"/><path fill="#372910" d="M9 4h1v1H9z"/><path fill="#372910" d="M8 4h1v1H8z"/><path fill="#372910" d="M7 4h1v1H7z"/><path fill="#372910" d="M6 4h1v1H6z"/><path fill="#684e1e" d="M13 3h1v1h-1z"/><path fill="#493615" d="M12 3h1v1h-1z"/><path fill="#372910" d="M11 3h1v1h-1z"/><path fill="#755821" d="M10 3h1v1h-1z"/><path fill="#6b511f" d="M9 3h1v1H9z"/><path fill="#6b511f" d="M8 3h1v1H8z"/><path fill="#755821" d="M7 3h1v1H7z"/><path fill="#866526" d="M6 3h1v1H6z"/><path fill="#372910" d="M5 3h1v1H5z"/><path fill="#372910" d="M10 2h1v1h-1z"/><path fill="#372910" d="M9 2h1v1H9z"/><path fill="#372910" d="M8 2h1v1H8z"/><path fill="#372910" d="M7 2h1v1H7z"/><path fill="#372910" d="M6 2h1v1H6z"/></svg>